<svg width="104" height="94" viewBox="0 0 104 94" fill="none" xmlns="http://www.w3.org/2000/svg">
<path d="M16.193 79.166C13.9797 79.166 11.7663 78.585 9.553 77.423C7.33967 76.2057 5.20933 74.2967 3.162 71.696L9.304 59.661C9.91267 60.7123 10.798 61.7083 11.96 62.649C13.1773 63.5897 14.45 64.3367 15.778 64.89C17.106 65.4433 18.2403 65.72 19.181 65.72C20.6197 65.72 21.9753 65.2773 23.248 64.392C24.576 63.5067 25.24 62.317 25.24 60.823C25.24 58.8863 24.3547 57.1157 22.584 55.511C20.8133 53.9063 18.8213 52.3293 16.608 50.78C14.45 49.2307 12.458 47.4877 10.632 45.551C8.86133 43.559 7.976 41.2903 7.976 38.745C7.976 35.8677 8.806 33.2117 10.466 30.777C12.126 28.287 14.284 26.129 16.94 24.303C19.596 22.4217 22.418 20.983 25.406 19.987C28.4493 18.9357 31.3267 18.41 34.038 18.41C35.9747 18.41 37.773 18.742 39.433 19.406C41.093 20.0147 42.421 21.0383 43.417 22.477C44.413 23.9157 44.911 25.8523 44.911 28.287C44.911 28.6743 44.8833 29.0617 44.828 29.449C44.828 29.8363 44.8003 30.2237 44.745 30.611C44.6897 30.9983 44.6067 31.4133 44.496 31.856C44.4407 32.2433 44.3853 32.6583 44.33 33.101L32.295 36.587C32.4057 36.1443 32.4887 35.7017 32.544 35.259C32.6547 34.8163 32.71 34.3737 32.71 33.931C32.71 32.271 32.4057 31.0813 31.797 30.362C31.2437 29.5873 30.4967 29.2 29.556 29.2C29.058 29.2 28.3387 29.4767 27.398 30.03C26.4573 30.528 25.5997 31.2473 24.825 32.188C24.1057 33.0733 23.746 34.0693 23.746 35.176C23.746 37.002 24.493 38.5237 25.987 39.741C27.5363 40.903 29.307 42.0927 31.299 43.31C32.2397 43.8633 33.291 44.7487 34.453 45.966C35.615 47.128 36.611 48.7327 37.441 50.78C38.3263 52.772 38.769 55.345 38.769 58.499C38.769 62.5937 37.7453 66.1903 35.698 69.289C33.706 72.3877 30.9947 74.8223 27.564 76.593C24.1333 78.3083 20.343 79.166 16.193 79.166ZM35.1741 78.502C37.6087 71.0873 39.9327 63.8663 42.1461 56.839C43.0867 53.9617 44.0551 50.8907 45.0511 47.626C46.0471 44.3613 47.0431 41.0967 48.0391 37.832C49.0351 34.512 49.9757 31.3303 50.8611 28.287C51.7464 25.2437 52.4934 22.5323 53.1021 20.153C56.1454 20.153 59.0227 19.987 61.7341 19.655C63.1174 19.489 64.5284 19.323 65.9671 19.157C67.4611 18.991 68.9827 18.8527 70.5321 18.742L70.0341 22.809C69.9234 23.5837 69.8127 24.386 69.7021 25.216C69.5914 25.9907 69.4807 26.793 69.3701 27.623C69.2594 28.453 69.1211 29.3107 68.9551 30.196C68.7891 31.026 68.6507 31.8837 68.5401 32.769C68.3187 34.4843 67.9867 36.8913 67.5441 39.99C67.1014 43.0333 66.5757 46.3533 65.9671 49.95H67.0461C68.6507 45.7447 69.9787 42.2587 71.0301 39.492C72.0814 36.67 72.9391 34.3737 73.6031 32.603C74.5437 30.0023 75.5674 27.374 76.6741 24.718C77.7807 22.062 78.6937 20.0147 79.4131 18.576C80.7411 18.4653 82.3181 18.2993 84.1441 18.078C86.0254 17.8013 87.9067 17.497 89.7881 17.165C91.7247 16.833 93.3847 16.5563 94.7681 16.335C93.9934 20.983 93.2741 25.6863 92.6101 30.445C92.0014 35.1483 91.4481 39.658 90.9501 43.974C90.5074 48.2347 90.1201 52.0803 89.7881 55.511C89.4561 58.9417 89.1517 62.3447 88.8751 65.72C88.5984 69.04 88.3217 72.3323 88.0451 75.597L73.6031 78.17C73.6031 78.0593 73.6861 76.8143 73.8521 74.435C74.0181 72.0557 74.2947 69.0953 74.6821 65.554C75.0694 62.0127 75.4567 58.665 75.8441 55.511C76.2314 52.3017 76.6187 49.6733 77.0061 47.626H76.2591C74.8757 51.8313 73.1881 56.424 71.1961 61.404C69.2594 66.384 67.3504 71.8897 65.4691 77.921C63.5324 77.9763 61.8724 78.0593 60.4891 78.17C59.1057 78.2253 57.5011 78.3083 55.6751 78.419L58.3311 47.626H57.0861C57.0307 48.2347 56.7817 49.4243 56.3391 51.195C55.8964 52.9103 55.3707 54.9023 54.7621 57.171C54.1534 59.3843 53.5171 61.5977 52.8531 63.811C50.3631 72.4983 49.0351 77.091 48.8691 77.589L35.1741 78.502Z" fill="black"/>
<mask id="path-2-outside-1_2_8" maskUnits="userSpaceOnUse" x="0" y="5" width="102" height="73" fill="black">
<rect fill="white" y="5" width="102" height="73"/>
<path d="M18.193 73.166C15.9797 73.166 13.7663 72.585 11.553 71.423C9.33967 70.2057 7.20933 68.2967 5.162 65.696L11.304 53.661C11.9127 54.7123 12.798 55.7083 13.96 56.649C15.1773 57.5897 16.45 58.3367 17.778 58.89C19.106 59.4433 20.2403 59.72 21.181 59.72C22.6197 59.72 23.9753 59.2773 25.248 58.392C26.576 57.5067 27.24 56.317 27.24 54.823C27.24 52.8863 26.3547 51.1157 24.584 49.511C22.8133 47.9063 20.8213 46.3293 18.608 44.78C16.45 43.2307 14.458 41.4877 12.632 39.551C10.8613 37.559 9.976 35.2903 9.976 32.745C9.976 29.8677 10.806 27.2117 12.466 24.777C14.126 22.287 16.284 20.129 18.94 18.303C21.596 16.4217 24.418 14.983 27.406 13.987C30.4493 12.9357 33.3267 12.41 36.038 12.41C37.9747 12.41 39.773 12.742 41.433 13.406C43.093 14.0147 44.421 15.0383 45.417 16.477C46.413 17.9157 46.911 19.8523 46.911 22.287C46.911 22.6743 46.8833 23.0617 46.828 23.449C46.828 23.8363 46.8003 24.2237 46.745 24.611C46.6897 24.9983 46.6067 25.4133 46.496 25.856C46.4407 26.2433 46.3853 26.6583 46.33 27.101L34.295 30.587C34.4057 30.1443 34.4887 29.7017 34.544 29.259C34.6547 28.8163 34.71 28.3737 34.71 27.931C34.71 26.271 34.4057 25.0813 33.797 24.362C33.2437 23.5873 32.4967 23.2 31.556 23.2C31.058 23.2 30.3387 23.4767 29.398 24.03C28.4573 24.528 27.5997 25.2473 26.825 26.188C26.1057 27.0733 25.746 28.0693 25.746 29.176C25.746 31.002 26.493 32.5237 27.987 33.741C29.5363 34.903 31.307 36.0927 33.299 37.31C34.2397 37.8633 35.291 38.7487 36.453 39.966C37.615 41.128 38.611 42.7327 39.441 44.78C40.3263 46.772 40.769 49.345 40.769 52.499C40.769 56.5937 39.7453 60.1903 37.698 63.289C35.706 66.3877 32.9947 68.8223 29.564 70.593C26.1333 72.3083 22.343 73.166 18.193 73.166ZM37.1741 72.502C39.6087 65.0873 41.9327 57.8663 44.1461 50.839C45.0867 47.9617 46.0551 44.8907 47.0511 41.626C48.0471 38.3613 49.0431 35.0967 50.0391 31.832C51.0351 28.512 51.9757 25.3303 52.8611 22.287C53.7464 19.2437 54.4934 16.5323 55.1021 14.153C58.1454 14.153 61.0227 13.987 63.7341 13.655C65.1174 13.489 66.5284 13.323 67.9671 13.157C69.4611 12.991 70.9827 12.8527 72.5321 12.742L72.0341 16.809C71.9234 17.5837 71.8127 18.386 71.7021 19.216C71.5914 19.9907 71.4807 20.793 71.3701 21.623C71.2594 22.453 71.1211 23.3107 70.9551 24.196C70.7891 25.026 70.6507 25.8837 70.5401 26.769C70.3187 28.4843 69.9867 30.8913 69.5441 33.99C69.1014 37.0333 68.5757 40.3533 67.9671 43.95H69.0461C70.6507 39.7447 71.9787 36.2587 73.0301 33.492C74.0814 30.67 74.9391 28.3737 75.6031 26.603C76.5437 24.0023 77.5674 21.374 78.6741 18.718C79.7807 16.062 80.6937 14.0147 81.4131 12.576C82.7411 12.4653 84.3181 12.2993 86.1441 12.078C88.0254 11.8013 89.9067 11.497 91.7881 11.165C93.7247 10.833 95.3847 10.5563 96.7681 10.335C95.9934 14.983 95.2741 19.6863 94.6101 24.445C94.0014 29.1483 93.4481 33.658 92.9501 37.974C92.5074 42.2347 92.1201 46.0803 91.7881 49.511C91.4561 52.9417 91.1517 56.3447 90.8751 59.72C90.5984 63.04 90.3217 66.3323 90.0451 69.597L75.6031 72.17C75.6031 72.0593 75.6861 70.8143 75.8521 68.435C76.0181 66.0557 76.2947 63.0953 76.6821 59.554C77.0694 56.0127 77.4567 52.665 77.8441 49.511C78.2314 46.3017 78.6187 43.6733 79.0061 41.626H78.2591C76.8757 45.8313 75.1881 50.424 73.1961 55.404C71.2594 60.384 69.3504 65.8897 67.4691 71.921C65.5324 71.9763 63.8724 72.0593 62.4891 72.17C61.1057 72.2253 59.5011 72.3083 57.6751 72.419L60.3311 41.626H59.0861C59.0307 42.2347 58.7817 43.4243 58.3391 45.195C57.8964 46.9103 57.3707 48.9023 56.7621 51.171C56.1534 53.3843 55.5171 55.5977 54.8531 57.811C52.3631 66.4983 51.0351 71.091 50.8691 71.589L37.1741 72.502Z"/>
</mask>
<path d="M18.193 73.166C15.9797 73.166 13.7663 72.585 11.553 71.423C9.33967 70.2057 7.20933 68.2967 5.162 65.696L11.304 53.661C11.9127 54.7123 12.798 55.7083 13.96 56.649C15.1773 57.5897 16.45 58.3367 17.778 58.89C19.106 59.4433 20.2403 59.72 21.181 59.72C22.6197 59.72 23.9753 59.2773 25.248 58.392C26.576 57.5067 27.24 56.317 27.24 54.823C27.24 52.8863 26.3547 51.1157 24.584 49.511C22.8133 47.9063 20.8213 46.3293 18.608 44.78C16.45 43.2307 14.458 41.4877 12.632 39.551C10.8613 37.559 9.976 35.2903 9.976 32.745C9.976 29.8677 10.806 27.2117 12.466 24.777C14.126 22.287 16.284 20.129 18.94 18.303C21.596 16.4217 24.418 14.983 27.406 13.987C30.4493 12.9357 33.3267 12.41 36.038 12.41C37.9747 12.41 39.773 12.742 41.433 13.406C43.093 14.0147 44.421 15.0383 45.417 16.477C46.413 17.9157 46.911 19.8523 46.911 22.287C46.911 22.6743 46.8833 23.0617 46.828 23.449C46.828 23.8363 46.8003 24.2237 46.745 24.611C46.6897 24.9983 46.6067 25.4133 46.496 25.856C46.4407 26.2433 46.3853 26.6583 46.33 27.101L34.295 30.587C34.4057 30.1443 34.4887 29.7017 34.544 29.259C34.6547 28.8163 34.71 28.3737 34.71 27.931C34.71 26.271 34.4057 25.0813 33.797 24.362C33.2437 23.5873 32.4967 23.2 31.556 23.2C31.058 23.2 30.3387 23.4767 29.398 24.03C28.4573 24.528 27.5997 25.2473 26.825 26.188C26.1057 27.0733 25.746 28.0693 25.746 29.176C25.746 31.002 26.493 32.5237 27.987 33.741C29.5363 34.903 31.307 36.0927 33.299 37.31C34.2397 37.8633 35.291 38.7487 36.453 39.966C37.615 41.128 38.611 42.7327 39.441 44.78C40.3263 46.772 40.769 49.345 40.769 52.499C40.769 56.5937 39.7453 60.1903 37.698 63.289C35.706 66.3877 32.9947 68.8223 29.564 70.593C26.1333 72.3083 22.343 73.166 18.193 73.166ZM37.1741 72.502C39.6087 65.0873 41.9327 57.8663 44.1461 50.839C45.0867 47.9617 46.0551 44.8907 47.0511 41.626C48.0471 38.3613 49.0431 35.0967 50.0391 31.832C51.0351 28.512 51.9757 25.3303 52.8611 22.287C53.7464 19.2437 54.4934 16.5323 55.1021 14.153C58.1454 14.153 61.0227 13.987 63.7341 13.655C65.1174 13.489 66.5284 13.323 67.9671 13.157C69.4611 12.991 70.9827 12.8527 72.5321 12.742L72.0341 16.809C71.9234 17.5837 71.8127 18.386 71.7021 19.216C71.5914 19.9907 71.4807 20.793 71.3701 21.623C71.2594 22.453 71.1211 23.3107 70.9551 24.196C70.7891 25.026 70.6507 25.8837 70.5401 26.769C70.3187 28.4843 69.9867 30.8913 69.5441 33.99C69.1014 37.0333 68.5757 40.3533 67.9671 43.95H69.0461C70.6507 39.7447 71.9787 36.2587 73.0301 33.492C74.0814 30.67 74.9391 28.3737 75.6031 26.603C76.5437 24.0023 77.5674 21.374 78.6741 18.718C79.7807 16.062 80.6937 14.0147 81.4131 12.576C82.7411 12.4653 84.3181 12.2993 86.1441 12.078C88.0254 11.8013 89.9067 11.497 91.7881 11.165C93.7247 10.833 95.3847 10.5563 96.7681 10.335C95.9934 14.983 95.2741 19.6863 94.6101 24.445C94.0014 29.1483 93.4481 33.658 92.9501 37.974C92.5074 42.2347 92.1201 46.0803 91.7881 49.511C91.4561 52.9417 91.1517 56.3447 90.8751 59.72C90.5984 63.04 90.3217 66.3323 90.0451 69.597L75.6031 72.17C75.6031 72.0593 75.6861 70.8143 75.8521 68.435C76.0181 66.0557 76.2947 63.0953 76.6821 59.554C77.0694 56.0127 77.4567 52.665 77.8441 49.511C78.2314 46.3017 78.6187 43.6733 79.0061 41.626H78.2591C76.8757 45.8313 75.1881 50.424 73.1961 55.404C71.2594 60.384 69.3504 65.8897 67.4691 71.921C65.5324 71.9763 63.8724 72.0593 62.4891 72.17C61.1057 72.2253 59.5011 72.3083 57.6751 72.419L60.3311 41.626H59.0861C59.0307 42.2347 58.7817 43.4243 58.3391 45.195C57.8964 46.9103 57.3707 48.9023 56.7621 51.171C56.1534 53.3843 55.5171 55.5977 54.8531 57.811C52.3631 66.4983 51.0351 71.091 50.8691 71.589L37.1741 72.502Z" fill="url(#paint0_linear_2_8)"/>
<path d="M11.553 71.423L9.62533 74.9279L9.65932 74.9466L9.69367 74.9646L11.553 71.423ZM5.162 65.696L1.59916 63.8777L0.435238 66.1584L2.01905 68.1702L5.162 65.696ZM11.304 53.661L14.7657 51.6569L11.0826 45.2952L7.74116 51.8427L11.304 53.661ZM13.96 56.649L11.4432 59.758L11.4784 59.7865L11.5142 59.8141L13.96 56.649ZM17.778 58.89L16.2395 62.5823L16.2395 62.5823L17.778 58.89ZM25.248 58.392L23.0292 55.0638L22.9963 55.0858L22.9637 55.1084L25.248 58.392ZM24.584 49.511L27.2701 46.5471L27.2701 46.547L24.584 49.511ZM18.608 44.78L16.2752 48.0293L16.2946 48.0432L16.3142 48.0569L18.608 44.78ZM12.632 39.551L9.64236 42.2085L9.68137 42.2523L9.72164 42.295L12.632 39.551ZM12.466 24.777L15.7709 27.0303L15.7826 27.0131L15.7942 26.9958L12.466 24.777ZM18.94 18.303L21.2061 21.5992L21.2292 21.5833L21.2521 21.5671L18.94 18.303ZM27.406 13.987L28.6709 17.7817L28.6915 17.7749L28.7121 17.7678L27.406 13.987ZM41.433 13.406L39.9474 17.1199L40.0014 17.1415L40.056 17.1615L41.433 13.406ZM45.417 16.477L48.7058 14.2002L48.7058 14.2002L45.417 16.477ZM46.828 23.449L42.8682 22.8833L42.828 23.1647V23.449H46.828ZM46.745 24.611L50.7048 25.1767L50.7048 25.1767L46.745 24.611ZM46.496 25.856L42.6154 24.8859L42.5654 25.0861L42.5362 25.2903L46.496 25.856ZM46.33 27.101L47.4429 30.9431L49.9725 30.2104L50.2991 27.5971L46.33 27.101ZM34.295 30.587L30.4144 29.6169L28.7276 36.364L35.4079 34.4291L34.295 30.587ZM34.544 29.259L30.6634 28.2889L30.6049 28.5232L30.5749 28.7628L34.544 29.259ZM33.797 24.362L30.5421 26.687L30.6375 26.8205L30.7435 26.9458L33.797 24.362ZM29.398 24.03L31.2696 27.5651L31.3488 27.5232L31.4261 27.4777L29.398 24.03ZM26.825 26.188L23.7373 23.6452L23.7289 23.6554L23.7205 23.6656L26.825 26.188ZM27.987 33.741L25.4603 36.8419L25.5227 36.8927L25.587 36.941L27.987 33.741ZM33.299 37.31L31.2132 40.7231L31.2419 40.7407L31.2709 40.7577L33.299 37.31ZM36.453 39.966L33.5596 42.7279L33.5917 42.7615L33.6246 42.7944L36.453 39.966ZM39.441 44.78L35.734 46.2828L35.7589 46.3441L35.7858 46.4046L39.441 44.78ZM37.698 63.289L34.3607 61.084L34.3468 61.1049L34.3333 61.126L37.698 63.289ZM29.564 70.593L31.3529 74.1707L31.3758 74.1592L31.3986 74.1475L29.564 70.593ZM18.193 73.166V69.166C16.7072 69.166 15.1272 68.7817 13.4123 67.8814L11.553 71.423L9.69367 74.9646C12.4054 76.3883 15.2521 77.166 18.193 77.166V73.166ZM11.553 71.423L13.4807 67.9181C11.8589 67.0261 10.1184 65.5254 8.30495 63.2218L5.162 65.696L2.01905 68.1702C4.30022 71.0679 6.82048 73.3852 9.62533 74.9279L11.553 71.423ZM5.162 65.696L8.72484 67.5143L14.8668 55.4793L11.304 53.661L7.74116 51.8427L1.59916 63.8777L5.162 65.696ZM11.304 53.661L7.8423 55.6651C8.74504 57.2244 9.9861 58.5784 11.4432 59.758L13.96 56.649L16.4768 53.54C15.6099 52.8383 15.0803 52.2002 14.7657 51.6569L11.304 53.661ZM13.96 56.649L11.5142 59.8141C12.9903 60.9548 14.5656 61.8848 16.2395 62.5823L17.778 58.89L19.3165 55.1977C18.3344 54.7885 17.3643 54.2246 16.4058 53.4839L13.96 56.649ZM17.778 58.89L16.2395 62.5823C17.8231 63.2421 19.5085 63.72 21.181 63.72V59.72V55.72C20.9721 55.72 20.3889 55.6446 19.3165 55.1977L17.778 58.89ZM21.181 59.72V63.72C23.5006 63.72 25.6439 62.9893 27.5323 61.6756L25.248 58.392L22.9637 55.1084C22.3068 55.5654 21.7387 55.72 21.181 55.72V59.72ZM25.248 58.392L27.4668 61.7202C29.8172 60.1533 31.24 57.7596 31.24 54.823H27.24H23.24C23.24 54.8986 23.2318 54.9288 23.2326 54.9257C23.2338 54.9208 23.2392 54.9042 23.2492 54.8863C23.2587 54.8692 23.2595 54.8742 23.234 54.9008C23.2068 54.929 23.1454 54.9863 23.0292 55.0638L25.248 58.392ZM27.24 54.823H31.24C31.24 51.5009 29.6665 48.7188 27.2701 46.5471L24.584 49.511L21.8979 52.4749C23.0428 53.5125 23.24 54.2718 23.24 54.823H27.24ZM24.584 49.511L27.2701 46.547C25.3606 44.8165 23.235 43.1363 20.9019 41.5031L18.608 44.78L16.3142 48.0569C18.4077 49.5224 20.2661 50.9961 21.8979 52.4749L24.584 49.511ZM18.608 44.78L20.9408 41.5307C18.9915 40.1312 17.1928 38.5574 15.5424 36.8069L12.632 39.551L9.72164 42.295C11.7232 44.4179 13.9085 46.3301 16.2752 48.0293L18.608 44.78ZM12.632 39.551L15.6216 36.8935C14.4683 35.596 13.976 34.2613 13.976 32.745H9.976H5.976C5.976 36.3193 7.25438 39.522 9.64236 42.2085L12.632 39.551ZM9.976 32.745H13.976C13.976 30.692 14.5522 28.8179 15.7709 27.0303L12.466 24.777L9.16109 22.5237C7.05985 25.6055 5.976 29.0434 5.976 32.745H9.976ZM12.466 24.777L15.7942 26.9958C17.1508 24.9609 18.9369 23.1593 21.2061 21.5992L18.94 18.303L16.6739 15.0068C13.6311 17.0987 11.1012 19.6131 9.1378 22.5582L12.466 24.777ZM18.94 18.303L21.2521 21.5671C23.5978 19.9055 26.0685 18.6492 28.6709 17.7817L27.406 13.987L26.1411 10.1923C22.7675 11.3168 19.5942 12.9378 16.6279 15.0389L18.94 18.303ZM27.406 13.987L28.7121 17.7678C31.412 16.8351 33.8457 16.41 36.038 16.41V12.41V8.41C32.8077 8.41 29.4867 9.03626 26.0999 10.2062L27.406 13.987ZM36.038 12.41V16.41C37.5084 16.41 38.7979 16.6601 39.9474 17.1199L41.433 13.406L42.9186 9.69209C40.7481 8.82389 38.4409 8.41 36.038 8.41V12.41ZM41.433 13.406L40.056 17.1615C40.9502 17.4894 41.607 18.0009 42.1282 18.7538L45.417 16.477L48.7058 14.2002C47.235 12.0757 45.2358 10.54 42.81 9.65049L41.433 13.406ZM45.417 16.477L42.1282 18.7538C42.512 19.3082 42.911 20.3573 42.911 22.287H46.911H50.911C50.911 19.3473 50.314 16.5232 48.7058 14.2002L45.417 16.477ZM46.911 22.287H42.911C42.911 22.4831 42.897 22.6815 42.8682 22.8833L46.828 23.449L50.7878 24.0147C50.8696 23.4419 50.911 22.8655 50.911 22.287H46.911ZM46.828 23.449H42.828C42.828 23.6451 42.814 23.8435 42.7852 24.0453L46.745 24.611L50.7048 25.1767C50.7866 24.6039 50.828 24.0275 50.828 23.449H46.828ZM46.745 24.611L42.7852 24.0453C42.7522 24.2764 42.6981 24.5553 42.6154 24.8859L46.496 25.856L50.3766 26.8261C50.5153 26.2714 50.6271 25.7202 50.7048 25.1767L46.745 24.611ZM46.496 25.856L42.5362 25.2903C42.4771 25.7037 42.4187 26.1421 42.3609 26.6049L46.33 27.101L50.2991 27.5971C50.3519 27.1745 50.4042 26.7829 50.4558 26.4217L46.496 25.856ZM46.33 27.101L45.2171 23.2589L33.1821 26.7449L34.295 30.587L35.4079 34.4291L47.4429 30.9431L46.33 27.101ZM34.295 30.587L38.1756 31.5571C38.3244 30.962 38.4374 30.361 38.5131 29.7551L34.544 29.259L30.5749 28.7628C30.54 29.0423 30.487 29.3267 30.4144 29.6169L34.295 30.587ZM34.544 29.259L38.4246 30.2291C38.6121 29.479 38.71 28.7107 38.71 27.931H34.71H30.71C30.71 28.0367 30.6972 28.1537 30.6634 28.2889L34.544 29.259ZM34.71 27.931H38.71C38.71 25.9744 38.3884 23.5957 36.8506 21.7782L33.797 24.362L30.7435 26.9458C30.5571 26.7256 30.5606 26.6055 30.6065 26.7851C30.6526 26.9653 30.71 27.3266 30.71 27.931H34.71ZM33.797 24.362L37.0519 22.037C35.7585 20.2263 33.8069 19.2 31.556 19.2V23.2V27.2C31.4621 27.2 31.2402 27.1762 30.9805 27.0415C30.7225 26.9077 30.5843 26.7461 30.5421 26.687L33.797 24.362ZM31.556 23.2V19.2C29.8899 19.2 28.3537 20.0036 27.3699 20.5823L29.398 24.03L31.4261 27.4777C31.5962 27.3777 31.7372 27.3014 31.8509 27.2446C31.9656 27.1872 32.0404 27.1557 32.0789 27.1409C32.1196 27.1252 32.0996 27.136 32.0275 27.1524C31.9585 27.1681 31.7937 27.2 31.556 27.2V23.2ZM29.398 24.03L27.5265 20.4948C26.0561 21.2733 24.7995 22.3553 23.7373 23.6452L26.825 26.188L29.9127 28.7308C30.3998 28.1393 30.8586 27.7827 31.2696 27.5651L29.398 24.03ZM26.825 26.188L23.7205 23.6656C22.4412 25.2402 21.746 27.1204 21.746 29.176H25.746H29.746C29.746 29.0182 29.7701 28.9065 29.9295 28.7104L26.825 26.188ZM25.746 29.176H21.746C21.746 32.2791 23.0934 34.9134 25.4603 36.8419L27.987 33.741L30.5137 30.6401C29.8926 30.1339 29.746 29.7248 29.746 29.176H25.746ZM27.987 33.741L25.587 36.941C27.2557 38.1925 29.1343 39.4527 31.2132 40.7231L33.299 37.31L35.3848 33.8969C33.4797 32.7327 31.817 31.6135 30.387 30.541L27.987 33.741ZM33.299 37.31L31.2709 40.7577C31.7697 41.0511 32.5307 41.6501 33.5596 42.7279L36.453 39.966L39.3464 37.2041C38.0513 35.8473 36.7097 34.6756 35.3271 33.8623L33.299 37.31ZM36.453 39.966L33.6246 42.7944C34.3018 43.4716 35.0399 44.5705 35.734 46.2828L39.441 44.78L43.148 43.2772C42.1821 40.8948 40.9282 38.7844 39.2814 37.1376L36.453 39.966ZM39.441 44.78L35.7858 46.4046C36.3659 47.7098 36.769 49.6743 36.769 52.499H40.769H44.769C44.769 49.0157 44.2868 45.8342 43.0962 43.1554L39.441 44.78ZM40.769 52.499H36.769C36.769 55.8932 35.9319 58.7059 34.3607 61.084L37.698 63.289L41.0353 65.494C43.5588 61.6748 44.769 57.2942 44.769 52.499H40.769ZM37.698 63.289L34.3333 61.126C32.7391 63.6059 30.568 65.5734 27.7294 67.0385L29.564 70.593L31.3986 74.1475C35.4213 72.0712 38.6729 69.1694 41.0627 65.452L37.698 63.289ZM29.564 70.593L27.7751 67.0153C24.9446 68.4306 21.774 69.166 18.193 69.166V73.166V77.166C22.912 77.166 27.3221 76.1861 31.3529 74.1707L29.564 70.593ZM37.1741 72.502L33.3737 71.2541L31.5239 76.8876L37.4401 76.4931L37.1741 72.502ZM44.1461 50.839L40.3441 49.596L40.3373 49.6167L40.3308 49.6373L44.1461 50.839ZM47.0511 41.626L43.2252 40.4588L43.2252 40.4588L47.0511 41.626ZM50.0391 31.832L53.865 32.9992L53.8677 32.9903L53.8704 32.9814L50.0391 31.832ZM52.8611 22.287L56.7018 23.4043L56.7018 23.4043L52.8611 22.287ZM55.1021 14.153V10.153H51.9965L51.2269 13.1617L55.1021 14.153ZM63.7341 13.655L63.2575 9.68348L63.2479 9.68465L63.7341 13.655ZM67.9671 13.157L67.5253 9.18146L67.517 9.1824L67.5086 9.18336L67.9671 13.157ZM72.5321 12.742L76.5024 13.2282L77.0929 8.40604L72.2471 8.75216L72.5321 12.742ZM72.0341 16.809L75.9939 17.3747L75.9995 17.335L76.0044 17.2952L72.0341 16.809ZM71.7021 19.216L75.6619 19.7817L75.6645 19.7632L75.667 19.7447L71.7021 19.216ZM71.3701 21.623L75.335 22.1517L75.335 22.1516L71.3701 21.623ZM70.9551 24.196L74.8774 24.9805L74.8821 24.9568L74.8866 24.9332L70.9551 24.196ZM70.5401 26.769L74.5072 27.2809L74.5082 27.273L74.5092 27.2651L70.5401 26.769ZM69.5441 33.99L73.5024 34.5658L73.5039 34.5557L69.5441 33.99ZM67.9671 43.95L64.0231 43.2826L63.2333 47.95H67.9671V43.95ZM69.0461 43.95V47.95H71.8011L72.7832 45.376L69.0461 43.95ZM73.0301 33.492L76.7692 34.9129L76.7738 34.9007L76.7784 34.8884L73.0301 33.492ZM75.6031 26.603L79.3484 28.0075L79.3566 27.9856L79.3646 27.9635L75.6031 26.603ZM78.6741 18.718L82.3664 20.2565L82.3664 20.2565L78.6741 18.718ZM81.4131 12.576L81.0809 8.58981L78.8407 8.77649L77.8354 10.7871L81.4131 12.576ZM86.1441 12.078L86.6254 16.0489L86.6758 16.0428L86.726 16.0354L86.1441 12.078ZM91.7881 11.165L91.1122 7.22251L91.1026 7.22416L91.0929 7.22586L91.7881 11.165ZM96.7681 10.335L100.714 10.9926L101.628 5.50653L96.1361 6.38523L96.7681 10.335ZM94.6101 24.445L90.6484 23.8922L90.6457 23.9119L90.6431 23.9316L94.6101 24.445ZM92.9501 37.974L88.9764 37.5155L88.9738 37.5381L88.9715 37.5606L92.9501 37.974ZM90.8751 59.72L94.8613 60.0522L94.8617 60.0468L90.8751 59.72ZM90.0451 69.597L90.7467 73.535L93.7713 72.9961L94.0308 69.9348L90.0451 69.597ZM75.6031 72.17H71.6031V76.9456L76.3047 76.108L75.6031 72.17ZM75.8521 68.435L71.8618 68.1566L75.8521 68.435ZM76.6821 59.554L80.6584 59.9889L80.6584 59.9889L76.6821 59.554ZM77.8441 49.511L81.8142 49.9986L81.8152 49.9903L77.8441 49.511ZM79.0061 41.626L82.9363 42.3696L83.8338 37.626H79.0061V41.626ZM78.2591 41.626V37.626H75.364L74.4594 40.3761L78.2591 41.626ZM73.1961 55.404L69.4822 53.9184L69.475 53.9363L69.468 53.9542L73.1961 55.404ZM67.4691 71.921L67.5833 75.9194L70.4374 75.8378L71.2876 73.1121L67.4691 71.921ZM62.4891 72.17L62.6489 76.1668L62.7286 76.1636L62.808 76.1573L62.4891 72.17ZM57.6751 72.419L53.6899 72.0753L53.2917 76.692L57.917 76.4117L57.6751 72.419ZM60.3311 41.626L64.3163 41.9697L64.6909 37.626H60.3311V41.626ZM59.0861 41.626V37.626H55.4332L55.1025 41.2639L59.0861 41.626ZM58.3391 45.195L62.2122 46.1945L62.216 46.1798L62.2196 46.1651L58.3391 45.195ZM56.7621 51.171L60.6189 52.2316L60.6222 52.2196L60.6254 52.2075L56.7621 51.171ZM54.8531 57.811L51.0218 56.6616L51.0147 56.6852L51.0079 56.7089L54.8531 57.811ZM50.8691 71.589L51.1351 75.5801L53.8146 75.4015L54.6638 72.8539L50.8691 71.589ZM37.1741 72.502L40.9744 73.7499C43.4139 66.3207 45.7428 59.0843 47.9613 52.0406L44.1461 50.839L40.3308 49.6373C38.1226 56.6484 35.8036 63.8539 33.3737 71.2541L37.1741 72.502ZM44.1461 50.839L47.948 52.082C48.8979 49.1765 49.8742 46.0801 50.877 42.7932L47.0511 41.626L43.2252 40.4588C42.2359 43.7012 41.2756 46.7468 40.3441 49.596L44.1461 50.839ZM47.0511 41.626L50.877 42.7932C51.873 39.5286 52.869 36.2639 53.865 32.9992L50.0391 31.832L46.2132 30.6648C45.2172 33.9294 44.2212 37.1941 43.2252 40.4588L47.0511 41.626ZM50.0391 31.832L53.8704 32.9814C54.8693 29.6517 55.8131 26.4593 56.7018 23.4043L52.8611 22.287L49.0203 21.1697C48.1383 24.2014 47.2008 27.3723 46.2078 30.6826L50.0391 31.832ZM52.8611 22.287L56.7018 23.4043C57.5961 20.3305 58.3553 17.5759 58.9773 15.1443L55.1021 14.153L51.2269 13.1617C50.6315 15.4888 49.8967 18.1569 49.0203 21.1697L52.8611 22.287ZM55.1021 14.153V18.153C58.2898 18.153 61.3306 17.9792 64.2202 17.6253L63.7341 13.655L63.2479 9.68465C60.7149 9.99482 58.001 10.153 55.1021 10.153V14.153ZM63.7341 13.655L64.2106 17.6265C65.5877 17.4613 66.9927 17.296 68.4256 17.1306L67.9671 13.157L67.5086 9.18336C66.0641 9.35003 64.6471 9.51674 63.2575 9.68349L63.7341 13.655ZM67.9671 13.157L68.4088 17.1325C69.8489 16.9725 71.3183 16.8389 72.817 16.7318L72.5321 12.742L72.2471 8.75216C70.6471 8.86644 69.0732 9.00948 67.5253 9.18146L67.9671 13.157ZM72.5321 12.742L68.5617 12.2558L68.0637 16.3228L72.0341 16.809L76.0044 17.2952L76.5024 13.2282L72.5321 12.742ZM72.0341 16.809L68.0743 16.2433C67.9617 17.0311 67.8494 17.8458 67.7372 18.6873L71.7021 19.216L75.667 19.7447C75.7761 18.9262 75.8851 18.1362 75.9939 17.3747L72.0341 16.809ZM71.7021 19.216L67.7423 18.6503C67.6297 19.4381 67.5174 20.2528 67.4052 21.0943L71.3701 21.623L75.335 22.1516C75.4441 21.3332 75.5531 20.5432 75.6619 19.7817L71.7021 19.216ZM71.3701 21.623L67.4052 21.0943C67.3045 21.8496 67.1776 22.6376 67.0236 23.4588L70.9551 24.196L74.8866 24.9332C75.0646 23.9838 75.2143 23.0564 75.335 22.1517L71.3701 21.623ZM70.9551 24.196L67.0327 23.4115C66.8466 24.342 66.6931 25.296 66.571 26.2729L70.5401 26.769L74.5092 27.2651C74.6084 26.4713 74.7315 25.71 74.8774 24.9805L70.9551 24.196ZM70.5401 26.769L66.573 26.2571C66.3551 27.9456 66.0261 30.3317 65.5843 33.4243L69.5441 33.99L73.5039 34.5557C73.9474 31.4509 74.2824 29.023 74.5072 27.2809L70.5401 26.769ZM69.5441 33.99L65.5857 33.4142C65.1482 36.422 64.6276 39.711 64.0231 43.2826L67.9671 43.95L71.911 44.6174C72.5239 40.9957 73.0546 37.6447 73.5024 34.5658L69.5441 33.99ZM67.9671 43.95V47.95H69.0461V43.95V39.95H67.9671V43.95ZM69.0461 43.95L72.7832 45.376C74.3883 41.1698 75.717 37.6819 76.7692 34.9129L73.0301 33.492L69.2909 32.0711C68.2405 34.8354 66.9132 38.3196 65.3089 42.524L69.0461 43.95ZM73.0301 33.492L76.7784 34.8884C77.8292 32.0678 78.6858 29.7744 79.3484 28.0075L75.6031 26.603L71.8577 25.1985C71.1923 26.9729 70.3336 29.2722 69.2817 32.0956L73.0301 33.492ZM75.6031 26.603L79.3646 27.9635C80.2827 25.4251 81.2832 22.8561 82.3664 20.2565L78.6741 18.718L74.9818 17.1795C73.8516 19.8919 72.8047 22.5796 71.8416 25.2425L75.6031 26.603ZM78.6741 18.718L82.3664 20.2565C83.4605 17.6304 84.3325 15.6815 84.9908 14.3649L81.4131 12.576L77.8354 10.7871C77.055 12.3479 76.1009 14.4936 74.9818 17.1795L78.6741 18.718ZM81.4131 12.576L81.7452 16.5622C83.1377 16.4461 84.7669 16.2742 86.6254 16.0489L86.1441 12.078L85.6627 8.10706C83.8692 8.32446 82.3444 8.48452 81.0809 8.58981L81.4131 12.576ZM86.1441 12.078L86.726 16.0354C88.6454 15.7532 90.5644 15.4427 92.4832 15.1041L91.7881 11.165L91.0929 7.22586C89.249 7.55125 87.4054 7.84948 85.5621 8.12056L86.1441 12.078ZM91.7881 11.165L92.4639 15.1075C94.3913 14.7771 96.0358 14.503 97.4 14.2848L96.7681 10.335L96.1361 6.38523C94.7336 6.60963 93.0582 6.88891 91.1122 7.22251L91.7881 11.165ZM96.7681 10.335L92.8225 9.6774C92.0419 14.3609 91.3172 19.0992 90.6484 23.8922L94.6101 24.445L98.5717 24.9978C99.2309 20.2734 99.9449 15.6051 100.714 10.9926L96.7681 10.335ZM94.6101 24.445L90.6431 23.9316C90.0323 28.6516 89.4767 33.1796 88.9764 37.5155L92.9501 37.974L96.9237 38.4325C97.4194 34.1364 97.9705 29.6451 98.577 24.9584L94.6101 24.445ZM92.9501 37.974L88.9715 37.5606C88.5281 41.8285 88.1398 45.6838 87.8067 49.1257L91.7881 49.511L95.7695 49.8963C96.1004 46.4769 96.4867 42.6408 96.9286 38.3874L92.9501 37.974ZM91.7881 49.511L87.8067 49.1257C87.4728 52.5755 87.1667 55.998 86.8884 59.3932L90.8751 59.72L94.8617 60.0468C95.1367 56.6913 95.4393 53.3078 95.7695 49.8963L91.7881 49.511ZM90.8751 59.72L86.8889 59.3878C86.6124 62.706 86.3359 65.9965 86.0594 69.2592L90.0451 69.597L94.0308 69.9348C94.3076 66.6682 94.5844 63.374 94.8612 60.0522L90.8751 59.72ZM90.0451 69.597L89.3435 65.659L74.9015 68.232L75.6031 72.17L76.3047 76.108L90.7467 73.535L90.0451 69.597ZM75.6031 72.17H79.6031C79.6031 72.283 79.5972 72.3657 79.6014 72.2856C79.6031 72.2529 79.6062 72.1989 79.6112 72.1188C79.6209 71.9601 79.6359 71.7282 79.6565 71.4193C79.6975 70.8031 79.7594 69.9019 79.8424 68.7134L75.8521 68.435L71.8618 68.1566C71.7065 70.3827 71.6031 71.8742 71.6031 72.17H75.6031ZM75.8521 68.435L79.8424 68.7134C80.0034 66.405 80.2742 63.5008 80.6584 59.9889L76.6821 59.554L72.7058 59.1191C72.3152 62.6898 72.0327 65.7064 71.8618 68.1566L75.8521 68.435ZM76.6821 59.554L80.6584 59.9889C81.044 56.4631 81.4293 53.1331 81.8142 49.9986L77.8441 49.511L73.8739 49.0234C73.4842 52.1969 73.0948 55.5623 72.7058 59.1191L76.6821 59.554ZM77.8441 49.511L81.8152 49.9903C82.197 46.827 82.572 44.2955 82.9363 42.3696L79.0061 41.626L75.0758 40.8824C74.6655 43.0512 74.2658 45.7763 73.8729 49.0317L77.8441 49.511ZM79.0061 41.626V37.626H78.2591V41.626V45.626H79.0061V41.626ZM78.2591 41.626L74.4594 40.3761C73.1069 44.4875 71.4493 49.0005 69.4822 53.9184L73.1961 55.404L76.91 56.8896C78.9268 51.8475 80.6445 47.1751 82.0588 42.8759L78.2591 41.626ZM73.1961 55.404L69.468 53.9542C67.4929 59.033 65.5543 64.6265 63.6505 70.7299L67.4691 71.921L71.2876 73.1121C73.1465 67.1528 75.0258 61.735 76.9241 56.8538L73.1961 55.404ZM67.4691 71.921L67.3548 67.9226C65.3743 67.9792 63.6422 68.065 62.1701 68.1827L62.4891 72.17L62.808 76.1573C64.1026 76.0537 65.6905 75.9734 67.5833 75.9194L67.4691 71.921ZM62.4891 72.17L62.3292 68.1732C60.9114 68.2299 59.2783 68.3145 57.4331 68.4263L57.6751 72.419L57.917 76.4117C59.7238 76.3022 61.3 76.2208 62.6489 76.1668L62.4891 72.17ZM57.6751 72.419L61.6603 72.7627L64.3163 41.9697L60.3311 41.626L56.3459 41.2823L53.6899 72.0753L57.6751 72.419ZM60.3311 41.626V37.626H59.0861V41.626V45.626H60.3311V41.626ZM59.0861 41.626L55.1025 41.2639C55.1025 41.2638 55.1025 41.2643 55.1024 41.2651C55.1023 41.2659 55.1022 41.2672 55.102 41.2688C55.1017 41.2721 55.1011 41.2768 55.1004 41.2831C55.0989 41.2957 55.0967 41.3133 55.0936 41.3362C55.0872 41.3826 55.0778 41.4446 55.0643 41.524C55.0372 41.6845 54.9976 41.8929 54.9427 42.1553C54.8325 42.6815 54.6728 43.3675 54.4585 44.2249L58.3391 45.195L62.2196 46.1651C62.6498 44.4443 62.9817 42.9558 63.0696 41.9881L59.0861 41.626ZM58.3391 45.195L54.466 44.1955C54.0273 45.8953 53.505 47.8744 52.8987 50.1345L56.7621 51.171L60.6254 52.2075C61.2364 49.9302 61.7655 47.9254 62.2122 46.1945L58.3391 45.195ZM56.7621 51.171L52.9052 50.1104C52.3048 52.2938 51.677 54.4776 51.0218 56.6616L54.8531 57.811L58.6844 58.9604C59.3572 56.7178 60.002 54.4748 60.6189 52.2316L56.7621 51.171ZM54.8531 57.811L51.0079 56.7089C49.7631 61.0517 48.8097 64.3681 48.147 66.6599C47.8155 67.8063 47.5578 68.6926 47.3733 69.3213C47.2809 69.6362 47.2082 69.8817 47.1545 70.0609C47.0944 70.2612 47.0727 70.329 47.0743 70.3241L50.8691 71.589L54.6638 72.8539C54.8655 72.2487 56.2329 67.5145 58.6982 58.9131L54.8531 57.811ZM50.8691 71.589L50.603 67.5979L36.908 68.5109L37.1741 72.502L37.4401 76.4931L51.1351 75.5801L50.8691 71.589Z" fill="black" mask="url(#path-2-outside-1_2_8)"/>
<defs>
<linearGradient id="paint0_linear_2_8" x1="54" y1="19" x2="43.6373" y2="75.762" gradientUnits="userSpaceOnUse">
<stop stop-color="#E55117"/>
<stop offset="1" stop-color="#E8A700"/>
</linearGradient>
</defs>
</svg>
